<svg width="45" height="64" viewBox="0 0 45 64" fill="none" xmlns="http://www.w3.org/2000/svg">
<g clip-path="url(#clip0_2784_7886)">
<path d="M44.5709 60.3248H1.50337V64.0001H44.5709V60.3248Z" fill="#999999"/>
<path d="M38.2593 59.2445V48.4332H39.0519L41.2012 11.6143H9.44519L12.3485 61.3355H35.4773V59.2445H38.2593Z" fill="#7F5604"/>
<path d="M38.2593 48.4332H39.0519L41.2021 11.6133H9.44519L12.3485 61.3345H35.4773V55.3041C35.4773 51.8837 36.3376 48.4332 38.2593 48.4332Z" fill="#AF7A05"/>
<path d="M1.93587 11.6143L4.83919 61.3355H32.1199L33.6919 11.6143H1.93587Z" fill="#EFA706"/>
<path d="M9.44519 11.6142L12.3485 0H38.2979L41.2012 11.6142H9.44519Z" fill="#AF7A05"/>
<path d="M1.93587 11.6142L4.83919 0H32.1199L33.6919 11.6142H1.93587Z" fill="#FFDB06"/>
<path d="M34.4177 9.61731H0V14.1594H34.4177V9.61731Z" fill="#FFDB06"/>
<path d="M34.4186 14.1603L43.0684 14.1603V9.6182H34.4186V14.1603Z" fill="#AF7A05"/>
<path d="M43.0675 13.976H0V14.3436H43.0675V13.976Z" fill="#7F5604"/>
<path d="M35.4773 61.1512H4.83919V61.5189H35.4773V61.1512Z" fill="#7F5604"/>
<path d="M43.0675 9.43396H0V9.80158H43.0675V9.43396Z" fill="#FFE266"/>
<path d="M38.2593 49.2738C37.1866 49.2738 36.3178 51.974 36.3178 55.3042C36.3178 58.6343 37.1875 61.3346 38.2593 61.3346H40.7998V49.2728H38.2593V49.2738Z" fill="#494949"/>
<path d="M28.6364 8.56516H7.69549C6.2993 8.56516 5.16354 7.42941 5.16354 6.03322H5.43902C5.43902 7.27709 6.45067 8.28968 7.69549 8.28968H28.6364C29.8803 8.28968 30.8929 7.27803 30.8929 6.03322V3.76453H31.1684V6.03322C31.1684 7.42941 30.0326 8.56516 28.6364 8.56516Z" fill="#7F5604"/>
<path d="M5.43902 6.03415H5.16354V3.76546C5.16354 2.36928 6.2993 1.23352 7.69549 1.23352H28.6364C30.0326 1.23352 31.1684 2.36928 31.1684 3.76546H30.8929C30.8929 2.52159 29.8813 1.509 28.6364 1.509H7.69549C6.45161 1.509 5.43902 2.52065 5.43902 3.76546V6.03415Z" fill="#FFE266"/>
<path d="M28.6355 2.55359H7.69549C7.02617 2.55359 6.48358 3.09618 6.48358 3.7655V6.03325C6.48358 6.70257 7.02617 7.24516 7.69549 7.24516H28.6355C29.3048 7.24516 29.8474 6.70257 29.8474 6.03325V3.7655C29.8474 3.09618 29.3048 2.55359 28.6355 2.55359Z" fill="#513503"/>
<path d="M6.62179 6.03413H6.34631V3.76544C6.34631 3.02175 6.9518 2.41626 7.69549 2.41626H28.6365C29.3801 2.41626 29.9856 3.02175 29.9856 3.76544H29.7102C29.7102 3.17312 29.2288 2.69174 28.6365 2.69174H7.69549C7.10317 2.69174 6.62179 3.17312 6.62179 3.76544V6.03413Z" fill="#7F5604"/>
<path d="M28.6365 7.38337H7.69549C6.9518 7.38337 6.34631 6.77789 6.34631 6.03419H6.62179C6.62179 6.62652 7.10317 7.1079 7.69549 7.1079H28.6365C29.2288 7.1079 29.7102 6.62652 29.7102 6.03419V3.7655H29.9856V6.03419C29.9856 6.77789 29.3801 7.38337 28.6365 7.38337Z" fill="#FFE266"/>
<path d="M36.4241 57.2748C36.6873 59.6375 37.4094 61.3355 38.2593 61.3355H40.7998V57.2748H36.4241Z" fill="#282828"/>
<path d="M40.7998 61.3345C41.872 61.3345 42.7413 58.6346 42.7413 55.3041C42.7413 51.9736 41.872 49.2737 40.7998 49.2737C39.7275 49.2737 38.8582 51.9736 38.8582 55.3041C38.8582 58.6346 39.7275 61.3345 40.7998 61.3345Z" fill="#1D1D1B"/>
<path d="M40.7997 59.4279C40.6982 59.4279 40.6164 59.3451 40.6164 59.2445C40.6164 59.1439 40.6991 59.0612 40.7997 59.0612C41.2529 59.0612 41.8847 57.6321 41.8847 55.3051C41.8847 52.9781 41.2529 51.5491 40.7997 51.5491C40.6982 51.5491 40.6164 51.4663 40.6164 51.3657C40.6164 51.2651 40.6991 51.1824 40.7997 51.1824C41.7428 51.1824 42.2523 53.3072 42.2523 55.3061C42.2523 57.3049 41.7437 59.4298 40.7997 59.4298V59.4279Z" fill="#707070"/>
<path d="M40.5478 57.2739C40.8983 57.2739 41.1824 56.392 41.1824 55.3042C41.1824 54.2163 40.8983 53.3345 40.5478 53.3345C40.1973 53.3345 39.9131 54.2163 39.9131 55.3042C39.9131 56.392 40.1973 57.2739 40.5478 57.2739Z" fill="#AF7A05"/>
<path d="M39.9132 60.856C39.852 60.856 39.7919 60.8259 39.7571 60.7695C39.0886 59.7023 38.674 57.6085 38.674 55.3041C38.674 53.1285 39.0548 51.093 39.6678 49.9911C39.7176 49.9027 39.8295 49.8707 39.9179 49.9196C40.0062 49.9685 40.0382 50.0813 39.9893 50.1697C39.4045 51.2199 39.0416 53.1877 39.0416 55.3041C39.0416 57.5427 39.4355 59.5623 40.0692 60.5739C40.1228 60.6595 40.0974 60.7732 40.0109 60.8268C39.9809 60.8456 39.947 60.855 39.9132 60.855V60.856Z" fill="#707070"/>
</g>
<defs>
<clipPath id="clip0_2784_7886">
<rect width="44.5709" height="64" fill="white"/>
</clipPath>
</defs>
</svg>
