<svg width="45" height="64" viewBox="0 0 45 64" fill="none" xmlns="http://www.w3.org/2000/svg">
<g clip-path="url(#clip0_2784_7863)">
<path d="M44.4611 60.3248H1.49966V64.0001H44.4611V60.3248Z" fill="#999999"/>
<path d="M38.1651 59.2445V48.4332H38.9557L41.0997 11.6143H9.42194L12.3181 61.3355H35.3899V59.2445H38.1651Z" fill="#175603"/>
<path d="M38.1651 48.4332H38.9557L41.1007 11.6133H9.42194L12.3181 61.3345H35.3899V55.3041C35.3899 51.8837 36.2481 48.4332 38.1651 48.4332Z" fill="#1E7F03"/>
<path d="M1.93109 11.6143L4.82726 61.3355H32.0407L33.6089 11.6143H1.93109Z" fill="#2DA800"/>
<path d="M9.42194 11.6142L12.3181 0H38.2035L41.0997 11.6142H9.42194Z" fill="#1E7F03"/>
<path d="M1.93109 11.6142L4.82726 0H32.0407L33.6089 11.6142H1.93109Z" fill="#5CC600"/>
<path d="M34.3329 9.61731H0V14.1594H34.3329V9.61731Z" fill="#5CC600"/>
<path d="M34.3339 14.1603L42.9623 14.1603V9.6182H34.3339V14.1603Z" fill="#1E7F03"/>
<path d="M42.9614 13.8839H0V14.2515H42.9614V13.8839Z" fill="#175603"/>
<path d="M42.9614 9.43396H0V9.80158H42.9614V9.43396Z" fill="#82ED1B"/>
<path d="M38.1651 49.2738C37.095 49.2738 36.2284 51.974 36.2284 55.3042C36.2284 58.6343 37.0959 61.3346 38.1651 61.3346H40.6992V49.2728H38.1651V49.2738Z" fill="#494949"/>
<path d="M28.5659 8.56516H7.67652C6.28377 8.56516 5.15082 7.42941 5.15082 6.03322H5.42562C5.42562 7.27709 6.43477 8.28968 7.67652 8.28968H28.5659C29.8067 8.28968 30.8159 7.27803 30.8159 6.03322V3.76453H31.0907V6.03322C31.0907 7.42941 29.9577 8.56516 28.5649 8.56516H28.5659Z" fill="#175603"/>
<path d="M5.42562 6.03416H5.15082V3.76547C5.15082 2.36928 6.28377 1.23352 7.67652 1.23352H28.5659C29.9586 1.23352 31.0916 2.36928 31.0916 3.76547H30.8168C30.8168 2.52159 29.8076 1.509 28.5668 1.509H7.67652C6.43571 1.509 5.42562 2.52065 5.42562 3.76547V6.03416Z" fill="#82ED1B"/>
<path d="M28.565 2.55359H7.67655C7.00888 2.55359 6.46762 3.09618 6.46762 3.7655V6.03325C6.46762 6.70257 7.00888 7.24516 7.67655 7.24516H28.565C29.2326 7.24516 29.7739 6.70257 29.7739 6.03325V3.7655C29.7739 3.09618 29.2326 2.55359 28.565 2.55359Z" fill="#0F3302"/>
<path d="M6.60549 6.03413H6.33069V3.76544C6.33069 3.02175 6.93468 2.41626 7.67654 2.41626H28.5659C29.3078 2.41626 29.9118 3.02175 29.9118 3.76544H29.637C29.637 3.17312 29.1568 2.69174 28.5659 2.69174H7.67654C7.08568 2.69174 6.60549 3.17312 6.60549 3.76544V6.03413Z" fill="#175603"/>
<path d="M28.5659 7.38337H7.67654C6.93468 7.38337 6.33069 6.77789 6.33069 6.03419H6.60549C6.60549 6.62652 7.08568 7.1079 7.67654 7.1079H28.5659C29.1568 7.1079 29.637 6.62652 29.637 6.03419V3.7655H29.9118V6.03419C29.9118 6.77789 29.3078 7.38337 28.5659 7.38337Z" fill="#82ED1B"/>
<path d="M36.3344 57.2748C36.597 59.6375 37.3172 61.3355 38.1651 61.3355H40.6992V57.2748H36.3344Z" fill="#282828"/>
<path d="M40.6992 61.3345C41.7689 61.3345 42.636 58.6346 42.636 55.3041C42.636 51.9736 41.7689 49.2737 40.6992 49.2737C39.6296 49.2737 38.7625 51.9736 38.7625 55.3041C38.7625 58.6346 39.6296 61.3345 40.6992 61.3345Z" fill="#1D1D1B"/>
<path d="M40.6992 59.4279C40.598 59.4279 40.5164 59.3451 40.5164 59.2445C40.5164 59.1439 40.5989 59.0612 40.6992 59.0612C41.1513 59.0612 41.7816 57.6321 41.7816 55.3051C41.7816 52.9781 41.1513 51.5491 40.6992 51.5491C40.598 51.5491 40.5164 51.4663 40.5164 51.3657C40.5164 51.2651 40.5989 51.1824 40.6992 51.1824C41.6399 51.1824 42.1483 53.3072 42.1483 55.3061C42.1483 57.3049 41.6409 59.4298 40.6992 59.4298V59.4279Z" fill="#707070"/>
<path d="M40.4479 57.2739C40.7975 57.2739 41.081 56.392 41.081 55.3042C41.081 54.2163 40.7975 53.3345 40.4479 53.3345C40.0983 53.3345 39.8148 54.2163 39.8148 55.3042C39.8148 56.392 40.0983 57.2739 40.4479 57.2739Z" fill="#1E7F03"/>
<path d="M35.3899 61.1512H4.82727V61.5189H35.3899V61.1512Z" fill="#175603"/>
<path d="M39.8148 60.856C39.7538 60.856 39.6938 60.8259 39.6591 60.7695C38.9923 59.7033 38.5787 57.6085 38.5787 55.3041C38.5787 53.1285 38.9585 51.093 39.57 49.9911C39.6188 49.9027 39.7304 49.8707 39.8195 49.9196C39.9076 49.9685 39.9395 50.0813 39.8908 50.1697C39.3074 51.2199 38.9454 53.1877 38.9454 55.3041C38.9454 57.5437 39.3384 59.5623 39.9705 60.5739C40.0239 60.6595 39.9986 60.7732 39.9123 60.8268C39.8823 60.8456 39.8486 60.855 39.8148 60.855V60.856Z" fill="#707070"/>
</g>
<defs>
<clipPath id="clip0_2784_7863">
<rect width="44.4611" height="64" fill="white"/>
</clipPath>
</defs>
</svg>
